<svg version="1.1" id="Layer_1" xmlns="http://www.w3.org/2000/svg" xmlns:xlink="http://www.w3.org/1999/xlink" x="0px" y="0px"
	 width="100%" viewBox="0 0 947 295" enable-background="new 0 0 947 295" xml:space="preserve">
<path fill="#FFFFFF" opacity="1.000000" stroke="none" 
	d="
M642.000000,296.000000 
	C429.500000,296.000000 217.500000,295.988434 5.500046,296.093536 
	C1.750773,296.095398 0.900382,295.249725 0.905109,291.499878 
	C1.025496,196.000031 1.023543,100.499969 0.904352,5.000119 
	C0.900078,1.575972 1.576578,0.904865 5.000031,0.905972 
	C318.000000,1.007234 631.000000,1.007234 944.000000,0.905972 
	C947.423462,0.904865 948.099976,1.575974 948.095703,5.000119 
	C947.976562,100.666634 947.976501,196.333359 948.095642,291.999878 
	C948.099915,295.424042 947.424011,296.099548 943.999878,296.095520 
	C843.500000,295.977600 743.000000,296.000000 642.000000,296.000000 
z"/>
<path fill="#065FFF" opacity="1.000000" stroke="none" 
	d="
M301.787384,56.056458 
	C314.416595,56.579697 322.113007,63.701656 322.178223,75.785362 
	C322.400421,116.943321 322.399353,158.104004 322.171875,199.261932 
	C322.104828,211.391968 313.876526,218.841080 301.646606,218.942627 
	C292.981995,219.014572 284.314331,219.058960 275.652130,218.897385 
	C272.874634,218.845566 271.729523,219.587082 272.012665,222.483429 
	C272.238586,224.794281 272.057129,227.144867 272.057983,229.477814 
	C272.060577,236.601562 272.737396,237.489655 279.965668,237.632111 
	C289.460449,237.819229 298.966431,237.511673 308.457397,237.778656 
	C311.770782,237.871826 312.137848,235.848862 312.964111,233.678848 
	C317.430725,221.948105 328.300354,214.942078 340.684448,215.748230 
	C352.847473,216.539978 362.831146,225.212616 365.619965,237.409225 
	C365.694092,237.733414 365.784027,238.054840 365.840668,238.382065 
	C367.506836,248.002121 366.870270,248.771576 357.253265,248.771561 
	C333.090576,248.771545 308.927917,248.771637 284.765228,248.771271 
	C283.432129,248.771255 282.097412,248.809418 280.766144,248.759201 
	C269.248016,248.324753 259.986755,245.437683 260.943024,228.210693 
	C261.455444,218.979675 261.033936,218.956268 251.666885,218.956268 
	C203.674820,218.956238 155.682770,218.960083 107.690704,218.953995 
	C91.913750,218.951981 84.553741,211.554337 84.547417,195.647812 
	C84.532043,156.987534 84.532158,118.327263 84.546516,79.666992 
	C84.552658,63.132473 91.706940,56.057713 108.349152,56.057373 
	C172.671814,56.056065 236.994476,56.056664 301.787384,56.056458 
z"/>
<path fill="#81DA5B" opacity="1.000000" stroke="none" 
	d="
M736.940857,192.129395 
	C723.592834,193.926178 710.599121,192.614044 697.638672,192.977142 
	C694.260803,193.071762 695.260681,190.380737 695.255310,188.633743 
	C695.196716,169.651886 695.218384,150.669800 695.218384,131.687775 
	C695.218323,118.829720 695.218384,118.825935 708.198853,118.831291 
	C714.859070,118.834038 721.520935,118.765945 728.179199,118.885071 
	C738.388916,119.067726 744.849304,122.967140 747.366638,130.275314 
	C750.164856,138.398514 747.793579,144.778091 739.000488,151.835800 
	C750.393616,155.943329 755.412476,163.810349 753.329407,175.701599 
	C751.738403,184.783356 746.201111,190.038956 736.940857,192.129395 
z"/>
<path fill="#34BB80" opacity="1.000000" stroke="none" 
	d="
M434.157318,137.756592 
	C433.816895,144.289658 430.178894,148.206924 425.224121,151.358948 
	C425.605530,151.853836 425.807892,152.411758 426.150452,152.518143 
	C437.784119,156.130692 440.694550,166.085159 439.589813,174.187607 
	C438.088348,185.199814 431.339294,191.936630 419.453949,192.677704 
	C407.674377,193.412170 395.819519,192.907013 383.998718,193.038681 
	C381.702148,193.064255 381.228546,192.007950 381.232025,189.998932 
	C381.271057,167.351562 381.293945,144.703949 381.208893,122.056808 
	C381.198395,119.260857 382.423523,118.757553 384.833832,118.785042 
	C395.323364,118.904678 405.822144,118.657921 416.302734,118.999237 
	C427.803040,119.373772 433.896912,125.866333 434.157318,137.756592 
z"/>
<path fill="#33BA80" opacity="1.000000" stroke="none" 
	d="
M530.737183,167.324524 
	C520.944397,155.490219 525.954895,140.307999 540.499390,136.756409 
	C545.432617,135.551804 550.539307,135.145340 555.251404,137.023636 
	C559.285706,138.631744 560.148010,136.666641 561.072144,133.629791 
	C561.557312,132.035141 561.051147,129.165817 563.433289,129.320221 
	C566.497009,129.518784 570.160889,130.021881 572.309204,131.861618 
	C574.146484,133.434967 572.185852,137.040802 570.419617,138.353348 
	C565.657532,141.892273 566.108765,144.793045 568.464111,150.104889 
	C573.484985,161.428055 564.392151,172.920059 550.687927,173.904404 
	C548.036499,174.094849 545.361328,173.934631 542.697998,173.985458 
	C540.640137,174.024719 539.110229,174.856018 538.885620,177.098938 
	C538.633362,179.617737 540.141907,180.856262 542.394104,181.034119 
	C547.537964,181.440308 552.693970,181.712051 557.849121,181.951187 
	C567.999329,182.422028 574.026245,186.808334 575.047241,194.550797 
	C576.363586,204.533569 571.876282,211.862534 562.148682,214.798660 
	C552.022095,217.855164 541.765137,217.597656 531.608154,214.769470 
	C528.542969,213.915985 525.775391,212.326645 523.612366,209.880783 
	C518.006287,203.541733 519.963074,194.680145 527.672668,191.352661 
	C528.705017,190.907074 530.042908,191.106659 530.967041,189.611557 
	C528.171509,186.777237 525.256287,183.762970 526.128967,179.114563 
	C526.980835,174.576752 530.735291,172.980682 534.340454,171.278839 
	C533.903442,169.210587 531.976196,168.834747 530.737183,167.324524 
z"/>
<path fill="#31BA7F" opacity="1.000000" stroke="none" 
	d="
M634.996582,153.340057 
	C635.045105,165.622070 634.953308,177.445755 635.178528,189.263397 
	C635.240356,192.509903 634.070862,193.061142 631.159851,193.073517 
	C621.029602,193.116547 621.031555,193.226364 621.029663,182.967545 
	C621.028137,174.808868 621.083496,166.649582 620.999390,158.491730 
	C620.932678,152.018951 618.678894,148.789886 613.968323,148.030869 
	C607.808411,147.038300 602.266724,150.015579 600.224243,155.475464 
	C598.791748,159.304642 598.932312,163.317780 598.946350,167.316803 
	C598.972107,174.642883 598.853821,181.971191 599.005249,189.294220 
	C599.060791,191.980270 598.454834,193.023300 595.476257,193.086761 
	C584.884155,193.312454 584.886841,193.442230 584.886841,182.920761 
	C584.886841,161.608246 584.984314,140.294891 584.796265,118.984032 
	C584.762878,115.200172 585.821167,114.188202 589.543457,114.256088 
	C598.950134,114.427658 598.949280,114.243690 598.954956,123.705757 
	C598.958801,130.032730 598.972656,136.359711 599.001160,142.686615 
	C599.002441,142.979065 599.192261,143.270676 599.548950,144.291565 
	C606.917114,135.766403 615.891602,133.669006 625.922668,137.857178 
	C632.360352,140.545029 634.240723,146.489288 634.996582,153.340057 
z"/>
<path fill="#81DA5A" opacity="1.000000" stroke="none" 
	d="
M768.389893,159.666016 
	C765.455750,152.052460 762.689209,144.788452 759.917114,137.509720 
	C760.685791,137.253555 760.991821,137.076843 761.307678,137.057098 
	C774.284912,136.245148 774.275208,136.250427 778.603210,148.412247 
	C781.335449,156.089600 784.098145,163.756104 786.857666,171.423721 
	C787.341187,172.767258 787.480652,174.317612 788.975952,175.224365 
	C790.584778,174.210754 790.683533,172.462189 791.204773,170.971024 
	C794.607361,161.238007 798.114014,151.538040 801.294678,141.732544 
	C802.423279,138.253189 803.943665,136.748825 807.887878,136.877136 
	C817.444214,137.187988 817.473511,136.963654 814.087891,145.944473 
	C807.341614,163.840256 800.762939,181.802658 793.746033,199.592026 
	C788.063049,213.999542 777.931213,219.216431 763.751709,216.168976 
	C760.157837,215.396576 759.431458,213.739532 760.270203,210.616501 
	C760.571838,209.493408 760.925903,208.353912 760.998291,207.205673 
	C761.193726,204.104095 762.149475,202.774643 765.671448,203.852768 
	C767.960815,204.553558 770.655396,204.364914 773.098633,204.043823 
	C779.387024,203.217422 782.847473,197.101807 780.577393,191.208939 
	C776.571594,180.810837 772.564209,170.413315 768.389893,159.666016 
z"/>
<path fill="#80DA5A" opacity="1.000000" stroke="none" 
	d="
M872.297729,183.608459 
	C866.121704,173.325653 865.635986,162.745010 869.494568,152.076447 
	C875.268188,136.113297 898.472107,130.136078 911.425171,141.143021 
	C919.186462,147.738174 919.363525,156.818985 918.844482,165.964310 
	C918.685547,168.763672 916.293701,168.075607 914.596375,168.084579 
	C905.097717,168.134750 895.593628,168.291794 886.102051,168.028458 
	C881.725464,167.907028 881.465881,169.555008 882.598511,173.067062 
	C885.657410,182.551605 898.742432,185.412857 905.808655,178.043198 
	C908.956421,174.760193 911.852478,175.111359 916.684753,179.659821 
	C919.830505,182.620834 916.383362,184.389404 915.019348,186.181198 
	C906.333557,197.591049 880.963562,196.700089 872.297729,183.608459 
z"/>
<path fill="#35BB81" opacity="1.000000" stroke="none" 
	d="
M652.297180,160.012939 
	C652.297241,157.849823 652.145813,156.166824 652.326111,154.520172 
	C652.813232,150.072662 652.137085,146.889923 646.440247,148.042374 
	C644.467529,148.441452 643.825012,147.236526 643.927368,145.397812 
	C644.010681,143.902756 644.077698,142.384018 643.911682,140.902695 
	C643.586548,138.001587 644.405945,136.364319 647.670349,136.947205 
	C651.419495,137.616623 652.646973,136.078842 652.418640,132.311234 
	C652.293457,130.244598 650.848511,127.002045 653.638611,126.071831 
	C657.367065,124.828728 661.447632,124.334503 665.400146,124.199783 
	C667.382385,124.132217 666.611084,126.570190 666.654663,127.917236 
	C666.946594,136.945877 666.917297,136.946823 675.921143,136.948364 
	C682.100952,136.949417 684.599243,140.666565 682.475525,146.590836 
	C682.147827,147.504883 681.686951,147.985504 680.765991,148.039825 
	C680.101257,148.079010 679.432373,148.047012 678.767456,148.084335 
	C674.971985,148.297363 669.999756,146.465561 667.670349,148.809006 
	C664.921265,151.574570 666.916748,156.701736 666.729492,160.795197 
	C666.539246,164.952393 666.614319,169.127136 666.712463,173.290924 
	C666.880981,180.440628 670.376099,183.356644 676.998230,180.774826 
	C681.513977,179.014221 681.763428,181.664185 682.597900,184.308548 
	C683.527405,187.253632 685.948853,190.194275 680.851013,192.360992 
	C665.815247,198.751556 652.679382,190.705978 652.323486,174.507141 
	C652.221008,169.843369 652.300781,165.175583 652.297180,160.012939 
z"/>
<path fill="#80DA5A" opacity="1.000000" stroke="none" 
	d="
M828.791138,151.403793 
	C828.835999,146.985947 825.806824,148.000946 823.779419,148.136673 
	C818.315613,148.502457 820.337830,144.519470 820.130737,142.015884 
	C819.922424,139.498001 819.271423,136.226257 823.755493,136.972687 
	C828.062195,137.689560 829.228271,135.753754 828.904358,131.716141 
	C828.752380,129.822678 827.477539,126.888489 830.207031,125.996078 
	C833.955078,124.770676 837.957397,123.754440 841.921448,124.313080 
	C843.654785,124.557343 842.838806,126.877167 842.871033,128.254379 
	C843.074280,136.956711 843.042480,136.957474 851.933838,136.959198 
	C852.266602,136.959259 852.599304,136.958832 852.932068,136.959259 
	C858.183716,136.965942 861.030029,141.876938 858.707886,146.826782 
	C857.932678,148.479233 856.511169,147.951874 855.275513,148.059769 
	C851.340759,148.403259 846.189331,146.325333 843.761292,148.906128 
	C841.174744,151.655289 843.096313,156.828537 842.937622,160.937302 
	C842.783691,164.924179 842.869324,168.922150 842.914978,172.914490 
	C843.000000,180.353714 846.354065,183.126556 853.368652,180.753357 
	C856.767883,179.603287 858.001648,180.443390 858.532959,183.471436 
	C859.059082,186.469452 862.731262,189.707458 857.356567,192.220688 
	C842.698303,199.075058 829.024475,190.856400 828.824829,174.823181 
	C828.729553,167.171341 828.800476,159.517426 828.791138,151.403793 
z"/>
<path fill="#0961FF" opacity="1.000000" stroke="none" 
	d="
M236.987640,245.778717 
	C211.381607,245.778625 186.273056,245.786285 161.164536,245.760986 
	C159.520462,245.759338 157.791656,245.781906 156.251373,245.308304 
	C153.517731,244.467758 152.309158,242.314957 152.671219,239.503555 
	C153.005280,236.909592 154.615433,235.367081 157.225967,234.957977 
	C157.713776,234.881531 158.221954,234.929413 158.720734,234.929382 
	C188.485168,234.928314 218.249619,234.944382 248.014008,234.906342 
	C251.492569,234.901901 253.983704,236.091522 254.230164,239.801788 
	C254.489349,243.703583 252.184280,245.615067 248.458710,245.746719 
	C244.805023,245.875839 241.143311,245.777359 236.987640,245.778717 
z"/>
<path fill="#32BA7F" opacity="1.000000" stroke="none" 
	d="
M486.257507,146.455582 
	C486.098022,149.303650 485.246307,150.265701 482.459534,149.989334 
	C471.766144,148.928879 467.288544,152.808380 466.928192,163.507858 
	C466.653534,171.664001 466.646942,179.839554 466.865479,187.997253 
	C466.964661,191.700729 466.261993,193.250458 462.042694,193.121857 
	C452.475098,192.830246 452.467468,193.079971 452.467499,183.345673 
	C452.467529,169.348679 452.578613,155.350174 452.389648,141.355728 
	C452.342438,137.857758 453.345886,136.840515 456.848724,136.904297 
	C465.401764,137.060028 465.404999,136.881531 466.829376,145.123993 
	C469.496704,141.918732 471.517914,138.361771 475.554382,137.231201 
	C476.193512,137.052200 476.856659,136.958115 477.509735,136.829910 
	C486.532104,135.059113 488.292633,136.892685 486.257507,146.455582 
z"/>
<path fill="#34BA80" opacity="1.000000" stroke="none" 
	d="
M496.182953,159.000092 
	C496.183044,152.680023 496.370453,146.851547 496.111359,141.042999 
	C495.961121,137.674469 497.161072,136.899750 500.363983,136.909637 
	C510.488617,136.940918 510.489075,136.806046 510.489044,147.053177 
	C510.489044,160.855164 510.408203,174.657974 510.549164,188.458527 
	C510.581818,191.653976 510.145081,193.167160 506.322876,193.114899 
	C496.185669,192.976273 496.182800,193.181778 496.182831,182.946823 
	C496.182831,175.131241 496.182892,167.315643 496.182953,159.000092 
z"/>
<path fill="#33BA80" opacity="1.000000" stroke="none" 
	d="
M511.976624,121.208893 
	C511.187531,128.040024 507.768921,130.871094 501.766022,130.083267 
	C496.980286,129.455154 494.068329,125.384796 494.985992,120.367958 
	C495.698822,116.470757 498.209412,114.354881 502.120239,113.940575 
	C507.316254,113.390106 509.983765,115.274788 511.976624,121.208893 
z"/>
<path fill="#FDFDFF" opacity="1.000000" stroke="none" 
	d="
M99.664688,206.625061 
	C96.348854,204.428711 95.663239,201.462112 95.664268,198.140549 
	C95.676842,157.660980 95.641144,117.181358 95.700714,76.701881 
	C95.710663,69.939186 98.747711,67.096535 105.598488,67.094429 
	C170.898865,67.074348 236.199249,67.072983 301.499634,67.095757 
	C308.274323,67.098122 311.193726,69.985130 311.201508,76.873718 
	C311.247131,117.186653 311.245911,157.499710 311.198425,197.812637 
	C311.189850,205.121124 308.202667,207.921326 300.731598,207.922745 
	C235.930969,207.935120 171.130325,207.926208 106.329697,207.942062 
	C104.144432,207.942596 101.997810,207.916748 99.664688,206.625061 
z"/>
<path fill="#FAFBFF" opacity="1.000000" stroke="none" 
	d="
M339.262146,237.213196 
	C334.979309,237.612869 331.032562,237.721710 327.085846,237.720291 
	C326.016998,237.719910 324.555878,238.189255 324.043335,236.811218 
	C323.604828,235.632248 324.550995,234.597412 325.222168,233.701584 
	C328.457184,229.384048 332.654510,226.804916 338.607941,226.867462 
	C341.108765,230.141342 340.793457,233.485336 339.262146,237.213196 
z"/>
<path fill="#D6DEEB" opacity="1.000000" stroke="none" 
	d="
M339.385742,237.652145 
	C338.960205,234.312637 338.994354,231.079819 339.022095,227.392715 
	C345.354828,226.456894 349.615631,229.746704 352.915466,234.683258 
	C354.215027,236.627441 354.313934,237.982315 351.237030,237.850159 
	C347.445526,237.687317 343.643158,237.777817 339.385742,237.652145 
z"/>
<path fill="#FCFEFB" opacity="1.000000" stroke="none" 
	d="
M720.985474,181.206909 
	C710.043823,181.206100 710.043823,181.206100 710.043823,170.915192 
	C710.043823,159.176849 710.043945,159.147446 722.040649,159.202271 
	C724.684814,159.214355 727.368591,159.280838 729.963013,159.731430 
	C736.204163,160.815430 739.187561,164.673218 738.882141,170.851608 
	C738.561340,177.341446 735.146851,180.738846 728.451050,181.114426 
	C726.131775,181.244507 723.801697,181.181549 720.985474,181.206909 
z"/>
<path fill="#FEFFFE" opacity="1.000000" stroke="none" 
	d="
M732.819336,144.541168 
	C729.278259,149.088318 724.547058,148.122528 720.150879,148.160263 
	C710.050537,148.246964 710.050049,148.192749 710.050171,138.042847 
	C710.050293,129.903366 710.050293,129.903168 718.140991,129.903900 
	C719.802795,129.904053 721.464844,129.890930 723.126465,129.910172 
	C732.809875,130.022293 736.179688,134.887375 732.819336,144.541168 
z"/>
<path fill="#FBFEFC" opacity="1.000000" stroke="none" 
	d="
M396.475952,180.594330 
	C396.135742,174.395004 396.106506,168.573441 396.037018,162.752365 
	C396.013977,160.820953 395.939728,159.038559 398.751740,159.179657 
	C404.556488,159.470963 410.405518,158.618881 416.177460,159.718826 
	C422.270813,160.880020 425.255859,164.848892 424.872070,171.076218 
	C424.497131,177.160843 421.272461,180.766571 415.209808,181.033463 
	C409.076447,181.303497 402.918488,181.015701 396.475952,180.594330 
z"/>
<path fill="#FDFEFE" opacity="1.000000" stroke="none" 
	d="
M416.487549,146.817291 
	C410.144989,149.304993 403.929230,147.814026 397.829620,148.149872 
	C396.609406,148.217056 396.069366,147.423264 396.072327,146.241669 
	C396.073181,145.908615 396.038391,145.574158 396.058441,145.242661 
	C396.357208,140.298615 393.869354,133.430023 396.960541,130.880554 
	C400.707031,127.790627 407.460846,129.832245 412.895966,130.123108 
	C416.067810,130.292877 418.776184,132.014816 419.605408,135.256958 
	C420.667084,139.408081 420.786011,143.570435 416.487549,146.817291 
z"/>
<path fill="#FAFDFC" opacity="1.000000" stroke="none" 
	d="
M538.896301,193.760681 
	C544.920410,193.836807 550.559021,193.876587 556.179810,194.213654 
	C558.356384,194.344162 560.487122,195.238388 561.010498,197.800095 
	C561.564880,200.513718 560.602539,202.657150 558.304382,204.252838 
	C554.063538,207.197525 541.533203,207.313583 537.128723,204.392868 
	C535.219238,203.126633 533.955994,201.445526 534.043884,199.046875 
	C534.149536,196.159500 535.750183,194.492142 538.896301,193.760681 
z"/>
<path fill="#FBFEFC" opacity="1.000000" stroke="none" 
	d="
M555.229309,159.820969 
	C551.471924,164.220398 546.542542,165.268784 542.722412,162.810684 
	C539.355774,160.644379 538.085693,155.054382 539.952332,150.618622 
	C541.513733,146.908295 545.461426,145.119644 549.959229,146.084610 
	C555.249695,147.219650 557.149902,151.881561 555.229309,159.820969 
z"/>
<path fill="#FDFEFC" opacity="1.000000" stroke="none" 
	d="
M901.715576,149.166702 
	C902.697571,150.351120 903.532532,151.211212 904.025269,152.235886 
	C906.520874,157.425034 905.550842,159.017792 899.981812,159.028854 
	C894.990173,159.038742 889.996765,158.950500 885.007629,159.062866 
	C882.506653,159.119217 881.852783,158.484070 882.626160,155.900055 
	C885.103821,147.621338 892.973999,144.613266 901.715576,149.166702 
z"/>
<path fill="#E4E5E6" opacity="1.000000" stroke="none" 
	d="
M252.000000,79.001221 
	C264.493103,79.001389 276.486267,78.977783 288.479279,79.010773 
	C295.492340,79.030060 298.974609,82.440926 298.979980,89.366875 
	C299.004974,121.515053 299.007843,153.663269 298.977631,185.811432 
	C298.971375,192.480042 295.454468,195.989655 288.944885,195.990479 
	C232.310760,195.997696 175.676651,195.998764 119.042534,195.990158 
	C111.000710,195.988937 108.010529,192.943451 108.008255,184.781342 
	C107.999390,152.966293 108.000389,121.151237 108.007721,89.336189 
	C108.009521,81.537331 110.545006,79.015388 118.576576,79.011566 
	C162.884384,78.990494 207.192184,79.001328 252.000000,79.001221 
z"/>
<path fill="#0A61FF" opacity="1.000000" stroke="none" 
	d="
M139.719345,107.612442 
	C144.704483,105.035782 149.619431,103.805237 154.889679,103.711121 
	C157.544540,103.663704 158.314133,104.595375 158.272812,107.169380 
	C158.141983,115.318787 158.366333,123.475220 158.159103,131.621460 
	C158.074509,134.946640 159.206650,135.910645 162.442719,135.827942 
	C170.256424,135.628220 178.084656,135.943405 185.894806,135.683533 
	C189.453308,135.565140 190.382248,136.712494 190.290741,140.172241 
	C189.865036,156.267227 176.463593,170.826828 159.952850,172.831375 
	C142.889420,174.903015 126.186745,163.549728 122.107353,147.106705 
	C118.144821,131.134705 124.668678,116.299416 139.719345,107.612442 
z"/>
<path fill="#045DFF" opacity="1.000000" stroke="none" 
	d="
M190.756317,120.474792 
	C191.888229,127.271820 191.888229,127.272156 185.345154,127.271919 
	C179.695129,127.271721 174.042191,127.163277 168.396393,127.317284 
	C165.753189,127.389381 164.961594,126.416237 165.017883,123.853157 
	C165.160156,117.375389 165.268845,110.883301 164.981796,104.415115 
	C164.826691,100.920158 166.345367,100.475281 169.110580,101.018494 
	C180.024094,103.162460 187.255569,109.458076 190.756317,120.474792 
z"/>
<path fill="#09F3FF" opacity="1.000000" stroke="none" 
	d="
M242.000000,128.056625 
	C232.187698,128.055573 222.875381,128.065369 213.563126,128.045334 
	C211.387238,128.040634 208.774033,128.209457 208.931107,125.038170 
	C209.082993,121.971672 211.781631,122.837029 213.587738,122.831367 
	C231.713272,122.774506 249.839127,122.775764 267.964691,122.824661 
	C269.959015,122.830040 272.905151,122.037727 272.876892,125.354324 
	C272.850250,128.479736 270.027222,128.024765 267.942413,128.036377 
	C259.461853,128.083603 250.980850,128.056381 242.000000,128.056625 
z"/>
<path fill="#035CFF" opacity="1.000000" stroke="none" 
	d="
M251.999527,107.269424 
	C239.518097,107.269478 227.536530,107.270103 215.554962,107.268280 
	C214.390182,107.268105 213.222504,107.301537 212.061310,107.232651 
	C210.499954,107.140022 208.940979,106.849930 208.855865,104.860840 
	C208.764877,102.734512 210.091797,101.951012 212.039917,101.950836 
	C231.177109,101.949081 250.314285,101.951942 269.451477,101.940201 
	C271.313293,101.939056 272.910980,102.440033 272.941040,104.566277 
	C272.971832,106.746994 271.260864,107.221878 269.472778,107.234207 
	C263.815155,107.273224 258.157227,107.261444 251.999527,107.269424 
z"/>
<path fill="#1DF4FE" opacity="1.000000" stroke="none" 
	d="
M234.249756,148.818604 
	C231.248215,148.388123 227.017914,150.196091 226.906174,146.167847 
	C226.781525,141.674271 231.211975,143.117004 233.885147,143.082886 
	C245.159332,142.938934 256.436523,142.996872 267.712372,143.043594 
	C269.971191,143.052963 272.985809,142.709518 272.901184,146.061554 
	C272.815613,149.450470 269.772400,148.796478 267.545990,148.803513 
	C256.601715,148.838043 245.657272,148.818909 234.249756,148.818604 
z"/>
<path fill="#045CFF" opacity="1.000000" stroke="none" 
	d="
M240.035492,169.272400 
	C236.887878,169.267319 234.233658,169.285004 231.580170,169.248962 
	C229.780746,169.224518 228.114578,168.751434 228.160446,166.570679 
	C228.197754,164.796738 229.522263,163.982697 231.210312,163.979935 
	C244.147964,163.958679 257.085693,163.952072 270.023285,163.986710 
	C271.720520,163.991241 272.972382,164.921448 272.930267,166.704620 
	C272.878265,168.908203 271.156006,169.254135 269.390900,169.257385 
	C259.770325,169.275101 250.149780,169.269699 240.035492,169.272400 
z"/>
<path fill="#FEFEFE" opacity="1.000000" stroke="none" 
	d="
M149.123779,93.999695 
	C146.572464,93.480064 143.296829,95.517479 142.996506,91.241188 
	C142.805557,88.522583 143.295273,86.764885 146.666519,86.948990 
	C150.636322,87.165810 154.630447,87.103378 158.607300,86.966553 
	C161.255203,86.875450 162.043381,88.031998 162.051712,90.525032 
	C162.060196,93.069550 161.162109,94.150200 158.559280,94.028023 
	C155.579727,93.888168 152.588425,93.998230 149.123779,93.999695 
z"/>
<path fill="#FEFEFE" opacity="1.000000" stroke="none" 
	d="
M125.669342,88.207764 
	C127.847031,90.608078 126.644257,92.148895 124.873077,93.432091 
	C123.569252,94.376686 122.363609,93.828224 121.312714,92.785553 
	C119.969894,91.453247 119.463654,89.838715 120.583008,88.293869 
	C121.904907,86.469482 123.689026,86.689468 125.669342,88.207764 
z"/>
<path fill="#FEFEFE" opacity="1.000000" stroke="none" 
	d="
M137.846222,90.132942 
	C137.350143,92.593941 136.209839,94.139626 133.840881,93.743187 
	C132.543259,93.526047 131.563126,92.415642 131.214783,91.093498 
	C130.761673,89.373711 131.894836,88.223831 133.188980,87.540939 
	C135.564758,86.287300 136.725235,88.043953 137.846222,90.132942 
z"/>
<path fill="#FBFCFF" opacity="1.000000" stroke="none" 
	d="
M150.233124,167.006088 
	C135.386292,162.919479 126.903809,152.716125 126.507248,138.909012 
	C126.151749,126.531296 134.077988,115.066467 145.877411,110.891220 
	C152.595367,108.514053 152.902786,108.718208 152.904526,115.578369 
	C152.906326,122.734726 153.079041,129.897156 152.829437,137.044785 
	C152.711182,140.431259 153.918686,141.238342 157.089478,141.151123 
	C164.573029,140.945282 172.066101,141.074539 179.555298,141.088593 
	C184.933823,141.098679 185.264053,141.545853 183.642487,146.798218 
	C179.852158,159.075378 167.403259,169.829514 150.233124,167.006088 
z"/>
</svg>