<svg version="1.1" id="Layer_1" xmlns="http://www.w3.org/2000/svg" xmlns:xlink="http://www.w3.org/1999/xlink" x="0px" y="0px"
	 width="100%" viewBox="0 0 1080 1080" enable-background="new 0 0 1080 1080" xml:space="preserve">
<path fill="#FFFFFF" opacity="1.000000" stroke="none" 
	d="
M1.000000,401.000000 
	C1.000000,268.848541 1.017299,137.197037 0.910287,5.545654 
	C0.907304,1.876645 1.595712,0.898209 5.453411,0.899379 
	C362.412201,1.007650 719.371033,1.010017 1076.329834,0.879516 
	C1080.552734,0.877973 1081.100464,1.940339 1081.099365,5.828726 
	C1080.992432,362.620850 1080.991821,719.413025 1081.104126,1076.205200 
	C1081.105347,1080.164307 1080.446289,1081.117676 1076.295898,1081.116211 
	C719.503723,1080.990479 362.711609,1080.988892 5.919509,1081.127441 
	C1.473419,1081.129150 0.903150,1079.938599 0.905059,1075.920654 
	C1.011843,851.113770 1.000000,626.306885 1.000000,401.000000 
z"/>
<path fill="#065FFF" opacity="1.000000" stroke="none" 
	d="
M217.000000,56.056046 
	C245.328384,56.055962 273.156769,56.047199 300.985138,56.059547 
	C314.366913,56.065487 322.216766,63.551666 322.259277,77.001938 
	C322.386719,117.327682 322.381989,157.654327 322.256561,197.980103 
	C322.214996,211.350449 314.306702,218.896973 300.934753,218.950943 
	C292.436401,218.985260 283.936554,219.038315 275.440063,218.908096 
	C272.931396,218.869659 271.793762,219.441299 272.007019,222.195770 
	C272.237885,225.177338 272.253143,228.206467 272.010437,231.186188 
	C271.689789,235.122772 273.160278,237.280807 277.210602,237.330353 
	C288.031128,237.462677 298.852600,237.529449 309.672638,237.691681 
	C312.402466,237.732605 312.236237,235.474274 312.829712,233.932220 
	C317.446991,221.934616 328.310791,214.860306 340.894409,215.750961 
	C352.835632,216.596115 362.624756,225.089401 365.532654,237.124924 
	C365.610809,237.448410 365.739197,237.761047 365.801392,238.086899 
	C367.644318,247.744400 366.801575,248.772552 357.053253,248.772537 
	C332.890900,248.772522 308.728516,248.772873 284.566162,248.771652 
	C283.066467,248.771576 281.564514,248.810684 280.067474,248.744324 
	C267.781555,248.199661 260.112610,243.995972 260.938873,228.526749 
	C261.448853,218.979187 261.033203,218.957001 251.482162,218.956985 
	C203.490707,218.956940 155.499252,218.962036 107.507805,218.953903 
	C92.031090,218.951279 84.555580,211.485443 84.547745,195.969528 
	C84.528160,157.143112 84.532784,118.316689 84.544289,79.490273 
	C84.549103,63.238857 91.759178,56.057980 108.020096,56.056854 
	C144.180069,56.054348 180.340027,56.056049 217.000000,56.056046 
z"/>
<path fill="#81DA5A" opacity="1.000000" stroke="none" 
	d="
M695.219055,187.814621 
	C695.218994,166.010712 695.304077,144.685669 695.137512,123.362610 
	C695.108704,119.680397 696.043457,118.395195 699.856384,118.514244 
	C709.508972,118.815590 719.177673,118.573868 728.832642,118.827652 
	C737.416138,119.053268 744.786255,121.883949 747.535339,130.904480 
	C750.198120,139.642166 747.108459,146.585541 738.867737,151.617599 
	C739.576294,152.067062 739.945984,152.422409 740.384460,152.562103 
	C752.187988,156.322998 754.743347,166.645966 753.614868,174.395447 
	C752.070740,184.999329 745.523071,191.837067 734.267090,192.600983 
	C722.158752,193.422775 709.960754,192.927002 697.801880,193.000443 
	C694.057800,193.023071 695.573364,190.141373 695.219055,187.814621 
z"/>
<path fill="#34BB80" opacity="1.000000" stroke="none" 
	d="
M381.252502,174.998795 
	C381.252533,157.512039 381.390686,140.522964 381.151917,123.539169 
	C381.094574,119.462524 382.398346,118.507721 386.222473,118.626114 
	C396.538239,118.945526 406.884857,118.525261 417.183472,119.072182 
	C429.028076,119.701218 435.856262,128.465378 434.036926,139.676575 
	C433.162048,145.067825 429.634430,148.442596 425.263245,151.384567 
	C425.631897,151.840302 425.834869,152.333099 426.188446,152.493225 
	C437.002136,157.390350 441.191437,164.348907 439.513184,174.693817 
	C437.770386,185.436600 431.060364,192.020920 419.445618,192.692169 
	C407.658813,193.373367 395.807648,192.908325 383.985687,193.039673 
	C381.674591,193.065353 381.198700,191.984528 381.230377,189.987106 
	C381.306885,185.158630 381.253448,180.328110 381.252502,174.998795 
z"/>
<path fill="#34BB80" opacity="1.000000" stroke="none" 
	d="
M561.525269,182.214935 
	C571.252319,184.815704 574.894409,188.729919 575.303711,196.636139 
	C575.739502,205.053757 571.819580,211.335434 563.463257,214.261978 
	C552.437378,218.123459 541.181580,218.034698 530.184326,214.147476 
	C522.440125,211.410080 518.951538,204.846252 520.956543,198.187241 
	C522.011902,194.682007 523.403809,193.500504 531.069885,189.714066 
	C528.088806,186.735260 525.220093,183.677994 526.145691,179.027176 
	C527.035950,174.554062 530.673584,172.821793 535.306152,171.052780 
	C529.036865,166.723633 525.542358,161.661545 525.770142,154.509781 
	C526.039124,146.065414 530.342590,139.809845 538.353516,137.262924 
	C543.847961,135.516037 549.598572,135.027588 555.046875,136.955063 
	C559.136353,138.401871 560.282654,136.735977 561.137085,133.350403 
	C561.534302,131.776627 561.068298,128.910660 563.675232,129.270782 
	C566.723694,129.691879 571.002319,129.534271 572.398499,131.959793 
	C573.968018,134.686417 571.556335,138.303787 568.966309,140.046143 
	C565.245728,142.549042 565.401123,144.243881 567.679138,148.026962 
	C573.335815,157.420624 567.532104,169.439255 556.348816,172.882477 
	C552.128296,174.181931 547.804871,174.050552 543.477539,173.963852 
	C541.074463,173.915695 539.026794,174.524994 538.894897,177.342667 
	C538.762512,180.168900 540.800720,181.000977 543.156250,181.148987 
	C549.136292,181.524689 555.121338,181.821121 561.525269,182.214935 
z"/>
<path fill="#31BA7F" opacity="1.000000" stroke="none" 
	d="
M584.885864,163.000000 
	C584.885925,147.852676 584.974609,133.204422 584.816895,118.558800 
	C584.782288,115.343155 585.618591,114.267982 588.963074,114.263718 
	C598.954529,114.250954 598.954346,114.103554 598.954346,124.117523 
	C598.954346,130.582138 598.954346,137.046738 598.954346,143.407791 
	C600.832581,144.268692 601.181946,142.691513 601.883484,141.978912 
	C608.542969,135.214478 616.595093,134.380905 624.934814,137.406586 
	C632.748840,140.241562 634.899231,147.199005 635.014587,154.772903 
	C635.189392,166.255157 634.970398,177.743744 635.176697,189.224991 
	C635.233765,192.403503 634.180847,193.068649 631.202759,193.079742 
	C621.028870,193.117630 621.030640,193.237808 621.028870,183.018906 
	C621.027466,174.863037 621.086060,166.706467 620.998474,158.551498 
	C620.928650,152.048843 618.718933,148.860764 614.000000,148.041565 
	C608.104187,147.018066 602.580933,149.797852 600.447205,154.998611 
	C599.300598,157.793320 598.924255,160.752075 598.942505,163.788589 
	C598.992554,172.110626 598.845703,180.435364 599.012451,188.754333 
	C599.073120,191.783646 598.539246,193.116898 595.019287,193.102509 
	C584.886658,193.061066 584.885925,193.239639 584.885925,182.974136 
	C584.885925,176.482758 584.885925,169.991379 584.885864,163.000000 
z"/>
<path fill="#81DA5A" opacity="1.000000" stroke="none" 
	d="
M771.839172,216.865723 
	C770.558044,216.866684 769.723816,216.887543 768.892944,216.844971 
	C759.582336,216.367981 757.840149,213.497223 761.387390,204.940475 
	C762.421814,202.445312 763.867798,203.607391 765.414856,203.890106 
	C773.185303,205.310104 777.414978,203.825989 780.301086,198.890091 
	C781.638855,196.602249 781.919556,194.530670 780.873535,191.880585 
	C774.280640,175.177643 767.885498,158.396515 761.458252,141.628479 
	C760.937744,140.270462 759.971924,138.992218 760.435242,136.996323 
	C764.332642,136.996323 768.306091,137.114670 772.268555,136.957062 
	C775.183777,136.841095 775.274841,139.110794 775.909424,140.860672 
	C779.537476,150.864395 783.089050,160.895828 786.686523,170.910721 
	C787.224854,172.409607 787.357483,174.141800 789.200134,175.410767 
	C791.177734,172.234344 791.954163,168.700470 793.143127,165.356003 
	C796.039062,157.210037 799.075317,149.105179 801.641541,140.855148 
	C802.641479,137.640396 804.202637,136.688202 807.332642,136.934753 
	C810.443909,137.179794 813.589600,136.988419 817.484497,136.988419 
	C814.862122,143.953171 812.483765,150.294540 810.087524,156.629150 
	C804.675415,170.936600 799.392212,185.294937 793.789490,199.527451 
	C789.958740,209.258881 783.765564,216.432770 771.839172,216.865723 
z"/>
<path fill="#81DA5A" opacity="1.000000" stroke="none" 
	d="
M875.717651,142.688293 
	C884.911011,134.982895 895.079224,134.215088 905.563354,137.797638 
	C914.948792,141.004730 918.424438,148.789810 918.924011,158.099304 
	C919.461060,168.106369 919.367065,168.111298 909.498840,168.111481 
	C901.510864,168.111618 893.520203,168.234024 885.536316,168.054062 
	C882.212524,167.979141 881.463013,169.142151 882.296875,172.174911 
	C883.645508,177.079025 886.427795,180.514786 891.544312,181.564163 
	C897.033203,182.689926 902.144287,182.134476 906.172058,177.623978 
	C908.876587,174.595413 911.652222,175.208618 916.699585,179.593063 
	C919.694214,182.194382 916.878296,183.856430 915.695068,185.380661 
	C905.340454,198.719376 879.867798,196.715561 871.233704,181.952942 
	C864.984558,171.268295 865.563049,151.626617 875.717651,142.688293 
z"/>
<path fill="#34BB80" opacity="1.000000" stroke="none" 
	d="
M673.037109,181.518036 
	C674.120911,181.457336 674.878479,181.560013 675.427185,181.268967 
	C680.064941,178.809052 681.594421,180.930969 683.156738,185.317581 
	C684.796082,189.920288 683.337769,191.600082 679.313171,192.932785 
	C663.829407,198.060059 652.509888,190.150803 652.323486,173.893387 
	C652.241333,166.732391 652.201904,159.567566 652.352417,152.408859 
	C652.415100,149.428238 651.930725,147.423904 648.352600,148.084183 
	C643.040955,149.064392 644.020081,145.346436 643.923279,142.305206 
	C643.824463,139.200424 643.398743,136.013977 648.267395,136.938965 
	C651.671082,137.585632 652.433533,135.869705 652.410828,132.737808 
	C652.394470,130.473572 650.828064,127.067329 653.694763,126.050766 
	C657.380066,124.743927 661.496094,124.329933 665.444946,124.225471 
	C667.390991,124.173996 666.605286,126.624390 666.646606,127.971489 
	C666.921814,136.949631 666.890869,136.950577 675.954956,136.952148 
	C682.059814,136.953201 684.619263,140.798172 682.462585,146.624084 
	C682.124634,147.537033 681.643127,147.993912 680.726196,148.039200 
	C680.061218,148.072067 679.393005,148.042191 678.728577,148.080826 
	C674.936951,148.301193 669.957947,146.454285 667.645020,148.818451 
	C664.927734,151.595917 666.877991,156.715912 666.725952,160.810394 
	C666.552979,165.466080 666.706299,170.135040 666.761963,174.797699 
	C666.808167,178.668030 668.526367,181.131531 673.037109,181.518036 
z"/>
<path fill="#81DA5A" opacity="1.000000" stroke="none" 
	d="
M820.553162,137.538574 
	C821.519531,137.120102 822.202637,136.886414 822.831543,136.988113 
	C827.388977,137.725128 829.360413,135.897446 828.526367,131.306610 
	C827.689880,126.702415 829.867065,124.971977 834.210083,125.001244 
	C835.515320,125.010033 836.844910,124.638191 838.126526,124.300789 
	C841.748840,123.347122 843.105896,124.379692 843.005005,128.404755 
	C842.790771,136.950241 843.015320,136.880905 851.585327,136.993851 
	C854.979187,137.038574 859.244568,135.203949 859.068542,141.988129 
	C858.935181,147.127426 857.596130,148.395203 852.638062,148.191574 
	C842.918640,147.792374 842.906433,148.078949 842.906982,157.582016 
	C842.907288,162.738693 842.857056,167.896057 842.922852,173.051910 
	C843.014465,180.240097 846.451294,183.263779 853.072205,180.820526 
	C859.690369,178.378250 857.992981,184.103363 859.580017,186.492325 
	C861.596069,189.526810 859.974854,191.104630 857.005493,192.365845 
	C842.131714,198.683289 829.308655,190.986099 828.622192,174.992981 
	C828.294373,167.354782 828.536865,159.691772 828.539429,152.039993 
	C828.540100,149.973495 828.649048,147.632126 825.617554,148.131683 
	C820.221130,149.020996 819.483582,146.129944 820.051514,141.856781 
	C820.225769,140.545334 820.186401,139.205490 820.553162,137.538574 
z"/>
<path fill="#34BB80" opacity="1.000000" stroke="none" 
	d="
M474.797180,150.041855 
	C468.596039,152.587341 467.104187,157.630249 466.954468,163.167267 
	C466.720703,171.816849 466.704254,180.477921 466.860016,189.129395 
	C466.915070,192.187012 465.991516,193.059631 462.929443,193.088028 
	C452.459320,193.185059 452.460449,193.310516 452.460510,182.757294 
	C452.460541,168.941605 452.577454,155.124237 452.380432,141.311356 
	C452.329834,137.762268 453.440460,136.424637 456.875824,136.984009 
	C457.037994,137.010406 457.208191,136.988098 457.374664,136.987244 
	C465.296265,136.946793 465.296265,136.946777 467.103790,144.411926 
	C470.178772,140.964294 472.791748,137.106125 477.722076,136.760559 
	C479.533234,136.633636 481.358490,136.556305 483.170715,136.626328 
	C486.945831,136.772263 488.793976,138.321289 487.130096,142.334534 
	C486.820831,143.080475 486.798767,143.964859 486.740265,144.792130 
	C486.442566,149.001709 484.806702,151.117691 480.143585,149.672089 
	C478.669647,149.215149 476.864410,149.826706 474.797180,150.041855 
z"/>
<path fill="#0A61FF" opacity="1.000000" stroke="none" 
	d="
M188.999969,245.782288 
	C179.020340,245.781998 169.540237,245.725723 160.061325,245.808380 
	C156.129333,245.842651 152.764008,244.898636 152.652725,240.394547 
	C152.540039,235.834335 155.782242,234.875687 159.797318,234.885742 
	C188.901245,234.958542 218.005508,234.953003 247.109482,234.891708 
	C251.078232,234.883347 254.334259,235.696182 254.225784,240.385574 
	C254.118988,245.002838 250.763153,245.811417 246.876587,245.802597 
	C227.751144,245.759171 208.625519,245.782547 188.999969,245.782288 
z"/>
<path fill="#34BB80" opacity="1.000000" stroke="none" 
	d="
M496.181641,170.999878 
	C496.181732,160.688187 496.312469,150.873749 496.109131,141.066238 
	C496.040344,137.748260 497.090515,136.894501 500.337250,136.905289 
	C510.490479,136.939026 510.490967,136.797241 510.490936,147.025391 
	C510.490875,160.994644 510.398468,174.964935 510.558990,188.932343 
	C510.596619,192.205124 509.622284,193.112320 506.350616,193.095245 
	C496.182281,193.042175 496.181488,193.189163 496.181488,182.974579 
	C496.181488,179.149658 496.181549,175.324753 496.181641,170.999878 
z"/>
<path fill="#34BB80" opacity="1.000000" stroke="none" 
	d="
M503.836090,130.247772 
	C497.140564,129.392548 494.351227,126.412430 494.856720,121.069221 
	C495.308289,116.295639 499.075745,113.428940 504.402649,113.926224 
	C508.774933,114.334404 511.428040,116.751511 511.948120,121.140015 
	C512.519348,125.959702 509.922760,128.898895 503.836090,130.247772 
z"/>
<path fill="#FDFDFF" opacity="1.000000" stroke="none" 
	d="
M250.000000,67.081856 
	C267.165894,67.081833 283.831757,67.073288 300.497650,67.085495 
	C308.436737,67.091309 311.202240,69.671326 311.208740,77.379013 
	C311.242462,117.377113 311.241241,157.375275 311.206024,197.373367 
	C311.199188,205.121735 308.347626,207.921829 300.663086,207.923203 
	C235.832779,207.934860 171.002472,207.935242 106.172173,207.920761 
	C98.551048,207.919052 95.689941,205.051758 95.684166,197.295105 
	C95.654488,157.463654 95.654419,117.632164 95.681122,77.800705 
	C95.686539,69.713898 98.394203,67.086914 106.506889,67.085655 
	C154.171265,67.078217 201.835632,67.081909 250.000000,67.081856 
z"/>
<path fill="#FBFCFF" opacity="1.000000" stroke="none" 
	d="
M339.280121,237.178192 
	C335.003906,237.590240 331.056671,237.709076 327.109222,237.717010 
	C326.037964,237.719162 324.578918,238.186523 324.052307,236.824615 
	C323.596710,235.646439 324.547852,234.609207 325.218048,233.713989 
	C328.452576,229.393433 332.645996,226.803329 338.604706,226.886673 
	C341.109131,230.144974 340.764801,233.469543 339.280121,237.178192 
z"/>
<path fill="#E4E5E6" opacity="1.000000" stroke="none" 
	d="
M339.409515,237.616318 
	C338.970673,234.299225 338.990112,231.085358 339.009949,227.420013 
	C345.322205,226.492081 349.565399,229.776016 352.867340,234.675354 
	C354.163544,236.598633 354.298737,237.947861 351.213379,237.808975 
	C347.437805,237.639008 343.650208,237.737259 339.409515,237.616318 
z"/>
<path fill="#FBFEFC" opacity="1.000000" stroke="none" 
	d="
M730.780396,159.837952 
	C737.203064,162.140884 739.688965,166.136185 738.783997,172.112137 
	C737.884155,178.054367 734.664551,180.890060 728.156982,181.116318 
	C723.170227,181.289719 718.171631,181.103928 713.182495,181.236404 
	C710.807556,181.299469 709.956238,180.412704 710.008972,178.046478 
	C710.127686,172.723801 710.105042,167.395721 710.018799,162.071808 
	C709.984070,159.925034 710.810913,159.057419 712.951233,159.166153 
	C718.754150,159.461029 724.597839,158.586014 730.780396,159.837952 
z"/>
<path fill="#FFFFFF" opacity="1.000000" stroke="none" 
	d="
M726.447632,148.063934 
	C721.853088,148.124863 717.701355,148.063354 713.557129,148.212921 
	C711.113037,148.301132 710.130432,147.622330 709.983582,144.916122 
	C709.140869,129.386597 709.205444,129.245697 724.698486,129.930420 
	C730.380310,130.181534 733.344238,132.421295 734.016235,136.971298 
	C734.910889,143.029144 732.877930,146.185654 726.447632,148.063934 
z"/>
<path fill="#FBFEFC" opacity="1.000000" stroke="none" 
	d="
M424.098755,174.751617 
	C422.425934,179.218628 419.181152,180.937164 415.079346,181.078308 
	C409.780457,181.260666 404.470703,181.113174 399.170166,181.265671 
	C396.821136,181.333267 395.946228,180.524948 396.006592,178.130249 
	C396.140228,172.828934 396.142273,167.519531 396.006927,162.218292 
	C395.943634,159.737915 397.011902,159.105743 399.265778,159.165283 
	C403.904236,159.287735 408.560455,159.010727 413.186096,159.287125 
	C422.661285,159.853256 426.249817,164.896545 424.098755,174.751617 
z"/>
<path fill="#FDFDFF" opacity="1.000000" stroke="none" 
	d="
M404.006195,129.890106 
	C406.482300,129.897354 408.479279,129.853409 410.472473,129.921265 
	C417.244202,130.151718 420.179504,133.000870 420.126221,139.230560 
	C420.075226,145.186569 417.191650,147.907303 410.637665,148.183121 
	C396.035919,148.797623 395.986572,148.797302 396.072144,135.611206 
	C396.115356,128.954941 394.956970,130.001434 404.006195,129.890106 
z"/>
<path fill="#FBFEFC" opacity="1.000000" stroke="none" 
	d="
M534.034180,199.032684 
	C534.575256,194.626221 537.566528,193.501678 540.867126,193.486160 
	C546.006592,193.461990 551.158569,193.798157 556.284302,194.230118 
	C558.461365,194.413574 560.556152,195.311096 561.028992,197.908524 
	C561.485535,200.416168 560.681458,202.448746 558.615723,204.025665 
	C554.275513,207.338806 540.943542,207.373749 536.624756,204.038666 
	C535.106506,202.866226 534.132324,201.392273 534.034180,199.032684 
z"/>
<path fill="#FBFEFC" opacity="1.000000" stroke="none" 
	d="
M550.349731,146.180115 
	C555.646118,149.055984 557.240784,152.472610 555.940247,157.865097 
	C555.013062,161.709564 552.473206,163.782227 548.484741,164.038681 
	C542.809204,164.403564 539.369568,161.283127 539.109375,155.504959 
	C538.847168,149.680084 541.854126,146.224579 547.463135,145.951111 
	C548.289185,145.910843 549.123230,146.035492 550.349731,146.180115 
z"/>
<path fill="#FBFEFC" opacity="1.000000" stroke="none" 
	d="
M886.101929,150.025269 
	C894.239868,144.471542 903.235962,146.805649 904.905945,154.570007 
	C905.514893,157.401276 905.396851,159.366196 901.460388,159.110229 
	C896.486755,158.786819 891.475952,159.050522 886.481323,159.028152 
	C881.607178,159.006332 881.266541,158.499268 883.376221,154.023270 
	C884.004517,152.690384 885.002502,151.531784 886.101929,150.025269 
z"/>
<path fill="#E4E5E6" opacity="1.000000" stroke="none" 
	d="
M108.004601,124.000000 
	C108.004608,112.506302 108.003616,101.512604 108.004921,90.518906 
	C108.006027,81.259575 110.215614,79.005981 119.392380,79.004623 
	C167.864594,78.997475 216.336807,79.001213 264.809021,79.001251 
	C272.804443,79.001259 280.800110,78.963600 288.795227,79.013725 
	C295.445801,79.055420 298.971313,82.542511 298.977509,89.182953 
	C299.007507,121.331161 299.005127,153.479431 298.980194,185.627640 
	C298.974823,192.550049 295.486145,195.991608 288.629242,195.992157 
	C232.161606,195.996643 175.693985,195.997772 119.226349,195.991364 
	C111.059341,195.990448 108.015434,193.002136 108.009529,184.965439 
	C107.994705,164.810287 108.004608,144.655151 108.004601,124.000000 
z"/>
<path fill="#0A61FF" opacity="1.000000" stroke="none" 
	d="
M178.985687,163.994827 
	C166.353882,174.355545 151.442474,175.882904 138.348450,168.347580 
	C126.131912,161.317184 119.161674,146.976059 121.286034,133.241913 
	C123.484528,119.028580 134.116180,107.662910 148.222794,104.442970 
	C148.546844,104.369011 148.862213,104.253609 149.188126,104.191689 
	C157.717819,102.571136 158.224899,102.978127 158.225342,111.426956 
	C158.225693,118.248718 158.364212,125.074471 158.166336,131.890457 
	C158.075409,135.022675 159.229050,135.878174 162.213104,135.818832 
	C170.362701,135.656784 178.520004,135.876785 186.669235,135.705658 
	C189.584610,135.644440 190.352921,136.694595 190.270264,139.449905 
	C189.980011,149.123688 186.092499,157.095459 178.985687,163.994827 
z"/>
<path fill="#065FFF" opacity="1.000000" stroke="none" 
	d="
M181.505814,106.440704 
	C187.169174,111.079453 190.271729,116.737717 191.362518,123.618637 
	C191.759613,126.123665 191.432114,127.371727 188.527725,127.319382 
	C181.707962,127.196457 174.884216,127.238976 168.062820,127.299667 
	C166.061661,127.317474 164.999969,126.800339 165.029877,124.523468 
	C165.121704,117.536369 165.128769,110.546234 165.021423,103.559547 
	C164.986526,101.289322 165.862900,100.698372 167.978317,100.904793 
	C172.930588,101.388016 177.262863,103.311974 181.505814,106.440704 
z"/>
<path fill="#09F3FF" opacity="1.000000" stroke="none" 
	d="
M224.004898,122.795654 
	C238.971664,122.795654 253.439270,122.768517 267.906525,122.827637 
	C269.889526,122.835739 272.838013,121.990921 272.874084,125.298386 
	C272.908478,128.451248 270.087524,128.032944 268.000549,128.036697 
	C249.874680,128.069183 231.748734,128.061630 213.622818,128.044403 
	C211.465302,128.042343 208.828918,128.270874 208.926300,125.096268 
	C209.020828,122.014648 211.707291,122.891228 213.529114,122.829285 
	C216.851166,122.716324 220.179749,122.796280 224.004898,122.795654 
z"/>
<path fill="#065FFF" opacity="1.000000" stroke="none" 
	d="
M252.999176,101.930405 
	C258.659821,101.931274 263.820740,101.945412 268.981506,101.926224 
	C270.935547,101.918961 272.927216,102.107109 272.934601,104.583839 
	C272.942047,107.087616 270.860443,107.262657 268.966766,107.264320 
	C250.321106,107.280731 231.675415,107.285683 213.029800,107.259583 
	C211.231567,107.257065 209.001740,107.440727 208.872269,104.843307 
	C208.728958,101.968285 210.945419,101.927643 213.043777,101.928787 
	C226.195648,101.935959 239.347519,101.931221 252.999176,101.930405 
z"/>
<path fill="#09F3FF" opacity="1.000000" stroke="none" 
	d="
M250.000000,143.073364 
	C256.308960,143.073639 262.118317,143.040085 267.926941,143.091843 
	C270.053986,143.110794 272.766266,142.886642 272.877472,145.870834 
	C272.992950,148.969528 270.335449,148.758774 268.154633,148.759079 
	C256.038574,148.760727 243.922516,148.768127 231.806503,148.750580 
	C229.681885,148.747513 226.889938,149.121368 226.854156,146.087494 
	C226.814606,142.735275 229.808182,143.117920 232.073105,143.094788 
	C237.881577,143.035477 243.691025,143.073944 250.000000,143.073364 
z"/>
<path fill="#065FFF" opacity="1.000000" stroke="none" 
	d="
M235.202805,163.930481 
	C246.467270,163.930740 257.258240,163.923767 268.049225,163.937546 
	C270.191040,163.940277 272.938232,163.623611 272.873688,166.714233 
	C272.807678,169.874893 269.936279,169.250809 267.891541,169.259308 
	C256.768707,169.305603 245.644730,169.354416 234.523331,169.221054 
	C232.175934,169.192902 228.201691,170.576630 228.313644,166.536118 
	C228.420853,162.666977 232.338242,164.324646 235.202805,163.930481 
z"/>
<path fill="#FFFFFF" opacity="1.000000" stroke="none" 
	d="
M161.773834,92.707565 
	C156.148010,94.976837 150.506363,93.751816 144.941452,93.860397 
	C142.494904,93.908134 143.110535,91.571823 143.025009,90.015472 
	C142.933762,88.354813 143.342163,87.026352 145.407364,87.029137 
	C150.059494,87.035416 154.714752,86.917534 159.362854,87.052536 
	C163.281082,87.166336 161.653076,90.245041 161.773834,92.707565 
z"/>
<path fill="#FDFDFF" opacity="1.000000" stroke="none" 
	d="
M125.727295,92.727448 
	C123.365364,94.794884 121.838989,93.675339 120.616943,91.909172 
	C119.705734,90.592232 119.699974,89.089340 120.894928,87.894394 
	C122.089737,86.699600 123.591751,86.703934 124.909019,87.616867 
	C126.673660,88.839836 127.795578,90.365211 125.727295,92.727448 
z"/>
<path fill="#FFFFFF" opacity="1.000000" stroke="none" 
	d="
M134.132568,87.152077 
	C136.602798,87.637741 138.141312,88.782524 137.741409,91.150642 
	C137.522903,92.444466 136.409637,93.428711 135.093079,93.781151 
	C133.371506,94.242027 132.227615,93.090340 131.545502,91.802261 
	C130.290329,89.431953 132.026886,88.262169 134.132568,87.152077 
z"/>
<path fill="#FBFCFF" opacity="1.000000" stroke="none" 
	d="
M170.991547,141.085236 
	C174.482712,141.085175 177.500031,141.326096 180.462814,141.026901 
	C184.604019,140.608734 184.702225,142.653641 183.969070,145.758240 
	C180.995071,158.351440 167.368256,168.570572 154.720596,167.609787 
	C139.085709,166.422073 127.797562,155.460968 126.682266,140.383804 
	C125.647644,126.397148 135.067261,113.245628 148.199844,110.053734 
	C151.967361,109.138031 153.147659,110.066986 152.993881,114.048744 
	C152.692474,121.852112 153.016235,129.677734 152.848358,137.489151 
	C152.787216,140.334976 153.703568,141.261642 156.528549,141.139175 
	C161.175537,140.937714 165.837662,141.084991 170.991547,141.085236 
z"/>
</svg>